<svg width="24" height="24" viewBox="0 0 24 24" fill="none" xmlns="http://www.w3.org/2000/svg">
<path d="M5.29297 11.3306C5.29297 10.7163 5.79932 10.2183 6.41357 10.2183H10.8794V5.75244C10.8794 5.13818 11.3774 4.63184 11.9917 4.63184C12.6143 4.63184 13.1123 5.13818 13.1123 5.75244V10.2183H17.5781C18.1924 10.2183 18.6987 10.7163 18.6987 11.3306C18.6987 11.9531 18.1924 12.4512 17.5781 12.4512H13.1123V16.917C13.1123 17.5312 12.6143 18.0376 11.9917 18.0376C11.3774 18.0376 10.8794 17.5312 10.8794 16.917V12.4512H6.41357C5.79932 12.4512 5.29297 11.9531 5.29297 11.3306Z" fill="white" fill-opacity="0.9"/>
</svg>
