<svg width="24" height="24" viewBox="0 0 24 24" fill="none" xmlns="http://www.w3.org/2000/svg">
<path d="M7.2124 11.3306C7.2207 10.9653 7.34521 10.6665 7.64404 10.376L13.6206 4.52393C13.8447 4.30811 14.1187 4.19189 14.4424 4.19189C15.0898 4.19189 15.6211 4.71484 15.6211 5.37061C15.6211 5.68604 15.4883 5.98486 15.2476 6.22559L9.99316 11.3223L15.2476 16.4355C15.4883 16.6763 15.6211 16.9668 15.6211 17.2988C15.6211 17.9463 15.0898 18.4692 14.4424 18.4692C14.1187 18.4692 13.8447 18.3613 13.6206 18.1372L7.64404 12.2769C7.34521 11.9946 7.2124 11.6875 7.2124 11.3306Z" fill="white" fill-opacity="0.9"/>
</svg>
