<svg width="24" height="24" viewBox="0 0 24 24" fill="none" xmlns="http://www.w3.org/2000/svg">
<path d="M12.5 13.3228C12.0186 13.3228 11.6284 12.9243 11.6284 12.4678V4.76465L11.7031 3.61084L11.2798 4.2085L10.292 5.25439C10.1509 5.42041 9.93506 5.50342 9.71924 5.50342C9.3208 5.50342 8.97217 5.20459 8.97217 4.78125C8.97217 4.55713 9.05518 4.39941 9.20459 4.2417L11.8193 1.73486C12.0435 1.51074 12.2676 1.43604 12.5 1.43604C12.7324 1.43604 12.9482 1.51074 13.1807 1.73486L15.7871 4.2417C15.9448 4.39941 16.0278 4.55713 16.0278 4.78125C16.0278 5.20459 15.6709 5.50342 15.2725 5.50342C15.0566 5.50342 14.8491 5.42041 14.6997 5.25439L13.7202 4.2085L13.2886 3.61084L13.3633 4.76465V12.4678C13.3633 12.9243 12.9814 13.3228 12.5 13.3228ZM7.95947 19.731C6.19141 19.731 5.22852 18.7847 5.22852 17.0249V9.43799C5.22852 7.68652 6.19141 6.73193 7.95947 6.73193H10.0347V8.64941H8.15039C7.49463 8.64941 7.146 8.97314 7.146 9.66211V16.8008C7.146 17.4897 7.49463 17.8135 8.15039 17.8135H16.8496C17.4971 17.8135 17.854 17.4897 17.854 16.8008V9.66211C17.854 8.97314 17.4971 8.64941 16.8496 8.64941H14.9985V6.73193H17.0405C18.8086 6.73193 19.7632 7.68652 19.7632 9.43799V17.0249C19.7632 18.7764 18.8086 19.731 17.0405 19.731H7.95947Z" fill="white" fill-opacity="0.9"/>
</svg>
