<svg width="24" height="24" viewBox="0 0 24 24" fill="none" xmlns="http://www.w3.org/2000/svg">
<path d="M5.38428 10.5337C4.78662 10.5337 4.33838 10.1104 4.33838 9.521V5.2959C4.33838 4.2749 4.93604 3.67725 5.96533 3.67725H10.3066C10.9043 3.67725 11.3276 4.11719 11.3276 4.71484C11.3276 5.3125 10.896 5.75244 10.3066 5.75244H9.77539L7.65039 5.57812L9.26074 7.08887L11.3193 9.14746C11.5186 9.34668 11.6348 9.5957 11.6348 9.87793C11.6348 10.5171 11.1865 10.9653 10.5557 10.9653C10.2734 10.9653 10.0161 10.8657 9.81689 10.6665L7.7666 8.59131L6.24756 6.98926L6.42188 9.08936V9.521C6.42188 10.1104 5.97363 10.5337 5.38428 10.5337ZM13.6934 19.0088C13.0957 19.0088 12.6724 18.5688 12.6724 17.9629C12.6724 17.3652 13.104 16.9336 13.6934 16.9336H14.2246L16.3496 17.0996L14.7393 15.5889L12.6807 13.5303C12.4814 13.3311 12.3652 13.082 12.3652 12.7998C12.3652 12.1606 12.8135 11.7124 13.4443 11.7124C13.7266 11.7124 13.9839 11.812 14.1831 12.0195L16.2334 14.0864L17.7524 15.6885L17.5781 13.5884V13.165C17.5781 12.5674 18.0264 12.144 18.6157 12.144C19.2134 12.144 19.6616 12.5757 19.6616 13.165V17.3818C19.6616 18.4111 19.064 19.0088 18.0347 19.0088H13.6934Z" fill="white" fill-opacity="0.9"/>
</svg>
