<svg width="24" height="24" viewBox="0 0 24 24" fill="none" xmlns="http://www.w3.org/2000/svg">
<path d="M5.86768 18.8096C4.09961 18.8096 3.13672 17.855 3.13672 16.0952V6.58252C3.13672 4.82275 4.09961 3.87646 5.86768 3.87646H19.124C20.8921 3.87646 21.8467 4.83105 21.8467 6.58252V16.0952C21.8467 17.855 20.8921 18.8096 19.124 18.8096H5.86768ZM6.05859 16.8921H9.72754V5.78564H6.05859C5.40283 5.78564 5.0542 6.11768 5.0542 6.80664V15.8794C5.0542 16.5684 5.40283 16.8921 6.05859 16.8921ZM18.9331 5.78564H11.5122V16.8921H18.9331C19.5806 16.8921 19.9375 16.5684 19.9375 15.8794V6.80664C19.9375 6.11768 19.5806 5.78564 18.9331 5.78564ZM8.15869 8.61621H6.63965C6.30762 8.61621 6.03369 8.34229 6.03369 8.03516C6.03369 7.71973 6.30762 7.4541 6.63965 7.4541H8.15869C8.49072 7.4541 8.76465 7.71973 8.76465 8.03516C8.76465 8.34229 8.49072 8.61621 8.15869 8.61621ZM8.15869 10.8076H6.63965C6.30762 10.8076 6.03369 10.542 6.03369 10.2266C6.03369 9.91113 6.30762 9.65381 6.63965 9.65381H8.15869C8.49072 9.65381 8.76465 9.91113 8.76465 10.2266C8.76465 10.542 8.49072 10.8076 8.15869 10.8076ZM8.15869 13.0073H6.63965C6.30762 13.0073 6.03369 12.7417 6.03369 12.4263C6.03369 12.1108 6.30762 11.8535 6.63965 11.8535H8.15869C8.49072 11.8535 8.76465 12.1108 8.76465 12.4263C8.76465 12.7417 8.49072 13.0073 8.15869 13.0073Z" fill="white" fill-opacity="0.9"/>
</svg>
