<svg width="24" height="24" viewBox="0 0 24 24" fill="none" xmlns="http://www.w3.org/2000/svg">
<path d="M5.95703 16.1616C4.18066 16.1616 3.22607 15.207 3.22607 13.4473V5.3623C3.22607 3.61084 4.18066 2.65625 5.95703 2.65625H14.0005C15.7686 2.65625 16.7314 3.61084 16.7314 5.3623V6.52441H18.043C19.811 6.52441 20.7739 7.479 20.7739 9.23047V17.3154C20.7739 19.0752 19.811 20.0215 18.043 20.0215H9.99951C8.22314 20.0215 7.26855 19.0752 7.26855 17.3154V16.1616H5.95703ZM6.14795 14.2441H7.26855V9.23047C7.26855 7.4707 8.22314 6.52441 9.99951 6.52441H14.814V5.58643C14.814 4.89746 14.457 4.57373 13.8096 4.57373H6.14795C5.49219 4.57373 5.14355 4.89746 5.14355 5.58643V13.2314C5.14355 13.9204 5.49219 14.2441 6.14795 14.2441ZM10.1904 18.1123H17.8521C18.4995 18.1123 18.8564 17.7803 18.8564 17.0913V9.45459C18.8564 8.76562 18.4995 8.44189 17.8521 8.44189H10.1904C9.53467 8.44189 9.18604 8.76562 9.18604 9.45459V17.0913C9.18604 17.7803 9.53467 18.1123 10.1904 18.1123Z" fill="white" fill-opacity="0.9"/>
</svg>
