<svg width="24" height="24" viewBox="0 0 24 24" fill="none" xmlns="http://www.w3.org/2000/svg">
<path d="M4.34668 14.1943C4.34668 10.9238 6.55469 8.66602 10.0991 8.66602H14.6064L16.3911 8.74902L15.1543 7.72803L13.4692 6.08447C13.2783 5.88525 13.1372 5.65283 13.1372 5.3208C13.1372 4.73145 13.5522 4.2915 14.1831 4.2915C14.457 4.2915 14.7393 4.41602 14.9551 4.62354L19.3296 8.94824C19.5371 9.14746 19.6533 9.44629 19.6533 9.74512C19.6533 10.0356 19.5371 10.3345 19.3296 10.5337L14.9551 14.8501C14.7393 15.0659 14.457 15.1821 14.1831 15.1821C13.5522 15.1821 13.1372 14.7422 13.1372 14.1528C13.1372 13.8291 13.2783 13.5884 13.4692 13.3975L15.1543 11.7539L16.3911 10.7329L14.6064 10.8159H10.1406C7.81641 10.8159 6.45508 12.1938 6.45508 14.1445C6.45508 16.0952 7.81641 17.498 10.1406 17.498H12C12.6309 17.498 13.0874 17.9795 13.0874 18.5771C13.0874 19.1665 12.6309 19.6479 12 19.6479H10.0161C6.52148 19.6479 4.34668 17.5063 4.34668 14.1943Z" fill="#EBEBF5" fill-opacity="0.3"/>
</svg>
