<svg width="24" height="24" viewBox="0 0 24 24" fill="none" xmlns="http://www.w3.org/2000/svg">
<path d="M11.9917 19.5815C7.46777 19.5815 3.74072 15.8628 3.74072 11.3306C3.74072 6.80664 7.46777 3.07959 11.9917 3.07959C16.5156 3.07959 20.251 6.80664 20.251 11.3306C20.251 15.8628 16.5239 19.5815 11.9917 19.5815ZM12.6558 10.376L17.1963 7.78613C16.1836 6.30029 14.5483 5.271 12.6558 5.07178V10.376ZM11.9917 17.6309C13.4028 17.6309 14.6978 17.1743 15.7437 16.4023L11.3774 12.1606C11.2114 11.9946 11.1367 11.8369 11.1367 11.5713V5.09668C8.05713 5.51172 5.70801 8.13477 5.70801 11.3306C5.70801 14.8252 8.50537 17.6309 11.9917 17.6309ZM13.27 11.7871L16.8726 15.3149C17.7607 14.2358 18.292 12.8496 18.292 11.3306C18.292 10.5586 18.1509 9.81982 17.9019 9.13916L13.27 11.7871Z" fill="white" fill-opacity="0.9"/>
</svg>
