<svg width="24" height="24" viewBox="0 0 24 24" fill="none" xmlns="http://www.w3.org/2000/svg">
<path d="M5.0293 8.09326V6.58252C5.0293 4.82275 5.99219 3.87646 7.76025 3.87646H9.22949V5.78564H7.95117C7.29541 5.78564 6.94678 6.11768 6.94678 6.80664V8.09326H5.0293ZM10.4746 5.78564V3.87646H14.5254V5.78564H10.4746ZM18.0449 8.09326V6.80664C18.0449 6.11768 17.6963 5.78564 17.0405 5.78564H15.7705V3.87646H17.2397C19.0078 3.87646 19.9624 4.83105 19.9624 6.58252V8.09326H18.0449ZM18.0449 13.3477V9.33838H19.9624V13.3477H18.0449ZM5.0293 13.3477V9.33838H6.94678V13.3477H5.0293ZM15.7705 18.8096V16.8921H17.0405C17.6963 16.8921 18.0449 16.5684 18.0449 15.8794V14.5928H19.9624V16.0952C19.9624 17.855 19.0078 18.8096 17.2397 18.8096H15.7705ZM7.76025 18.8096C5.99219 18.8096 5.0293 17.855 5.0293 16.0952V14.5928H6.94678V15.8794C6.94678 16.5684 7.29541 16.8921 7.95117 16.8921H9.22949V18.8096H7.76025ZM10.4746 18.8096V16.8921H14.5254V18.8096H10.4746Z" fill="white" fill-opacity="0.9"/>
</svg>
