<svg width="24" height="24" viewBox="0 0 24 24" fill="none" xmlns="http://www.w3.org/2000/svg">
<g clip-path="url(#clip0_1_3883)">
<path d="M5.104 15.8711C3.32764 15.8711 2.37305 14.9248 2.37305 13.165V5.62793C2.37305 3.87646 3.32764 2.92188 5.104 2.92188H15.7539C17.522 2.92188 18.4849 3.87646 18.4849 5.62793V6.79004H19.896C21.6641 6.79004 22.627 7.74463 22.627 9.49609V17.0332C22.627 18.7847 21.6641 19.7393 19.896 19.7393H9.19629C7.41992 19.7393 6.46533 18.793 6.46533 17.0332V15.8711H5.104ZM5.29492 13.9619H6.46533V9.49609C6.46533 7.73633 7.41992 6.79004 9.19629 6.79004H16.5674V5.85205C16.5674 5.16309 16.2188 4.83936 15.563 4.83936H5.29492C4.63916 4.83936 4.29053 5.16309 4.29053 5.85205V12.9409C4.29053 13.6382 4.63916 13.9619 5.29492 13.9619ZM9.38721 17.8218H19.7051C20.3525 17.8218 20.7095 17.498 20.7095 16.8091V9.72021C20.7095 9.03125 20.3525 8.70752 19.7051 8.70752H9.38721C8.73145 8.70752 8.38281 9.03125 8.38281 9.72021V16.8091C8.38281 17.498 8.73145 17.8218 9.38721 17.8218Z" fill="white" fill-opacity="0.9"/>
</g>
<defs>
<clipPath id="clip0_1_3883">
<rect width="24" height="24" fill="white"/>
</clipPath>
</defs>
</svg>
