<svg width="24" height="24" viewBox="0 0 24 24" fill="none" xmlns="http://www.w3.org/2000/svg">
<path d="M19.6533 14.1943C19.6533 17.5063 17.4785 19.6479 13.9756 19.6479H12C11.3691 19.6479 10.9126 19.1665 10.9126 18.5771C10.9126 17.9795 11.3691 17.498 12 17.498H13.8594C16.1836 17.498 17.5449 16.0952 17.5449 14.1445C17.5449 12.1938 16.1836 10.8159 13.8594 10.8159H9.39355L7.60889 10.7329L8.8457 11.7539L10.5308 13.3975C10.7217 13.5884 10.8628 13.8291 10.8628 14.1528C10.8628 14.7422 10.4478 15.1821 9.81689 15.1821C9.54297 15.1821 9.26074 15.0659 9.04492 14.8501L4.67041 10.5337C4.46289 10.3345 4.34668 10.0356 4.34668 9.74512C4.34668 9.44629 4.46289 9.14746 4.67041 8.94824L9.04492 4.62354C9.26074 4.41602 9.54297 4.2915 9.81689 4.2915C10.4478 4.2915 10.8628 4.73145 10.8628 5.3208C10.8628 5.65283 10.7217 5.88525 10.5308 6.08447L8.8457 7.72803L7.60889 8.74902L9.39355 8.66602H13.9009C17.4453 8.66602 19.6533 10.9238 19.6533 14.1943Z" fill="white" fill-opacity="0.9"/>
</svg>
