<svg width="24" height="24" viewBox="0 0 24 24" fill="none" xmlns="http://www.w3.org/2000/svg">
<path d="M5.86768 18.8013C4.09961 18.8013 3.13672 17.855 3.13672 16.0952V6.58252C3.13672 4.82275 4.09961 3.86816 5.86768 3.86816H19.124C20.8921 3.86816 21.8467 4.82275 21.8467 6.58252V16.0952C21.8467 17.855 20.8921 18.8013 19.124 18.8013H5.86768ZM5.0542 6.79834V8.30078H11.5786V5.78564H6.05859C5.40283 5.78564 5.0542 6.10938 5.0542 6.79834ZM18.9331 5.78564H13.4131V8.30078H19.9375V6.79834C19.9375 6.10938 19.5806 5.78564 18.9331 5.78564ZM5.0542 12.6172H11.5786V10.0605H5.0542V12.6172ZM13.4131 12.6172H19.9375V10.0605H13.4131V12.6172ZM6.05859 16.8921H11.5786V14.377H5.0542V15.8711C5.0542 16.5684 5.40283 16.8921 6.05859 16.8921ZM19.9375 15.8711V14.377H13.4131V16.8921H18.9331C19.5806 16.8921 19.9375 16.5684 19.9375 15.8711Z" fill="white" fill-opacity="0.9"/>
</svg>
