<svg width="24" height="24" viewBox="0 0 24 24" fill="none" xmlns="http://www.w3.org/2000/svg">
<path d="M5.36768 3.87646H18.624C20.4004 3.87646 21.355 4.83105 21.355 6.58252V7.97705C21.355 8.56641 20.9731 8.94824 20.3921 8.94824C19.8193 8.94824 19.4375 8.56641 19.4375 7.97705V6.80664C19.4375 6.11768 19.0806 5.78564 18.4331 5.78564H5.55859C4.90283 5.78564 4.5542 6.11768 4.5542 6.80664V7.97705C4.5542 8.56641 4.17236 8.94824 3.59961 8.94824C3.01855 8.94824 2.64502 8.56641 2.64502 7.97705V6.58252C2.64502 4.82275 3.59961 3.87646 5.36768 3.87646ZM9.60938 14.9829C9.07812 14.9829 8.7627 14.6758 8.7627 14.1777C8.7627 14.0283 8.7959 13.854 8.87891 13.5967L10.6304 8.67432C10.8711 7.96045 11.311 7.62842 11.9834 7.62842C12.6724 7.62842 13.1289 7.96875 13.3696 8.67432L15.1211 13.5967C15.2041 13.854 15.2373 14.0283 15.2373 14.1777C15.2373 14.6758 14.9219 14.9829 14.3989 14.9829C13.9507 14.9829 13.6685 14.7505 13.5356 14.2192L13.1787 13.1235H10.8296L10.4644 14.2192C10.3315 14.7505 10.0493 14.9829 9.60938 14.9829ZM11.1699 11.8452H12.8301L12.0415 9.27197H11.9585L11.1699 11.8452ZM3.59961 12.4844C2.90234 12.4844 2.32959 11.9116 2.32959 11.2144C2.32959 10.5171 2.90234 9.94434 3.59961 9.94434C4.29688 9.94434 4.86133 10.5171 4.86133 11.2144C4.86133 11.9116 4.29688 12.4844 3.59961 12.4844ZM20.3921 12.4844C19.6948 12.4844 19.1304 11.9116 19.1304 11.2144C19.1304 10.5088 19.6948 9.94434 20.3921 9.94434C21.0894 9.94434 21.6621 10.5171 21.6621 11.2144C21.6621 11.9116 21.0894 12.4844 20.3921 12.4844ZM5.36768 18.8096C3.59961 18.8096 2.64502 17.855 2.64502 16.0952V14.46C2.64502 13.8789 3.01855 13.4971 3.59961 13.4971C4.17236 13.4971 4.5542 13.8789 4.5542 14.46V15.8794C4.5542 16.5684 4.90283 16.8921 5.55859 16.8921H18.4331C19.0806 16.8921 19.4375 16.5684 19.4375 15.8794V14.46C19.4375 13.8789 19.811 13.4971 20.3921 13.4971C20.9731 13.4971 21.355 13.8789 21.355 14.46V16.0952C21.355 17.855 20.4004 18.8096 18.624 18.8096H5.36768Z" fill="white" fill-opacity="0.9"/>
</svg>
